<!-- <svg xmlns="http://www.w3.org/2000/svg" width="220" height="131.741" xmlns:v="https://vecta.io/nano"><defs><linearGradient id="A"><stop stop-color="#8f5e25" offset="0"/><stop stop-color="#fbf4a1" offset=".5"/><stop stop-color="#8f5e25" offset="1"/></linearGradient></defs><path d="M95 8.539L53 22.986V73.27c-1.832-.864-4.27-1.001-6.694-.193-4.192 1.397-6.74 5.078-5.692 8.222s5.295 4.559 9.487 3.162c3.742-1.247 6.166-4.314 5.899-7.195V32l36-12.397v32.681c-1.835-.876-4.286-1.019-6.722-.207-4.192 1.397-6.74 5.078-5.692 8.222s5.295 4.559 9.487 3.162c3.525-1.175 5.878-3.965 5.918-6.692H95V8.539zM19 9v43c-1.869-.892-4.481-.971-6.963-.143-4.269 1.423-6.865 5.172-5.798 8.374s5.393 4.644 9.663 3.221c3.59-1.197 6.047-4.038 6.087-6.816H22V23s12.926 3.741 17 18c0-16.296-14-19-20-32zm18.423 70H2v2h35.476a7.75 7.75 0 0 1-.053-2zM98 81v-2H58.9a8.66 8.66 0 0 1-.591 2H98zM5.078 64H2v2h5.87c-1.081-.501-2.028-1.176-2.792-2zM98 66v-2h-3.769c-.978.804-2.112 1.487-3.377 2H98zm-19.599-2H59v2h22.155a8.74 8.74 0 0 1-2.754-2zM21.09 64a13.4 13.4 0 0 1-3.433 2H50v-2H21.09zM25 49h25v2H25zm-13.875 0H2v2h5.25c1.106-.825 2.395-1.508 3.839-1.99.012-.004.024-.006.036-.01zM59 51h21.822a13.5 13.5 0 0 1 3.507-1.769l.796-.231H59v2zM32.25 34H25v2h8.595c-.427-.712-.877-1.378-1.345-2zM2 34h14v2H2zm57 2h30v-2H59.406l-.406.14zm-17.449 0H50v-2h-8.898l.449 2zm-8.817-15h18.028a2.99 2.99 0 0 1 1.263-.851L55.366 19h-24.68l2.048 2zM2 19h14v2H2z" transform="matrix(.941663 0 0 .941663 63.116673 -8.040863)" fill="#fce38f"/><path d="M26.28 34.08c.36 0 1.12.16 1.12 1.4v3.16c0 1.24-.76 1.4-1.12 1.4h-13.2c-1.76 0-3.28-.24-4.48-.68a6.55 6.55 0 0 1-3.12-2.24c-.8-1-1.36-2.32-1.72-3.92-.36-1.56-.56-3.48-.56-5.72V8.44c0-1.28.8-1.4 1.16-1.4h3.68c.32 0 1.12.12 1.12 1.4v19.72c0 1.2.04 2.2.2 3 .12.72.36 1.32.68 1.76.28.44.68.72 1.16.88.56.2 1.24.28 2.08.28h13zM60.929 7.04c.32 0 .6.2.72.52.08.32.04.64-.12.92l-12.12 21.4v8.76c0 1.24-.8 1.36-1.12 1.36h-3.68c-.32 0-1.12-.12-1.12-1.36v-8.76l-12-21.4a1.15 1.15 0 0 1-.12-.88c.08-.36.36-.56.72-.56h4.56c.36 0 .84.12 1.16.76l8.72 16 8.8-16.04c.32-.6.8-.72 1.16-.72h4.44zm38.329 31.24c.16.24.2.56.16.96-.08.48-.44.8-.92.8h-4.4c-.36 0-.64-.08-.84-.24-.16-.12-.28-.32-.44-.56l-7.24-12.84h-8.44v12.24c0 1.24-.76 1.4-1.12 1.4h-3.64c-.36 0-1.16-.16-1.16-1.4v-16.8c0-1.24.8-1.36 1.16-1.36h17.4c1.04 0 1.72-.28 2.12-.88.44-.6.64-1.56.64-2.88s-.2-2.28-.64-2.88c-.4-.6-1.08-.88-2.12-.88h-17.4c-.36 0-1.16-.12-1.16-1.36V8.44c0-1.28.8-1.4 1.16-1.4h18.44c2.72 0 4.72.84 5.92 2.56 1.08 1.64 1.68 3.96 1.76 7v.24c-.08 3.08-.68 5.4-1.76 7-1 1.36-2.52 2.2-4.48 2.44zm14.529-31.24c.32 0 1.12.16 1.12 1.4v30.2c0 1.24-.8 1.4-1.12 1.4h-3.68c-.32 0-1.12-.16-1.12-1.4V8.44c0-1.24.8-1.4 1.12-1.4h3.68zm29.809 19.24l6.92 12c.16.2.2.52.16.92-.04.52-.36.84-.92.84h-4.32c-.4 0-.68-.08-.84-.24-.16-.12-.32-.32-.44-.56l-6.24-10.96c-.44-.8-.88-1.32-1.32-1.56-.48-.28-1.2-.4-2.16-.4h-4.04v12.32c0 1.24-.8 1.4-1.12 1.4h-3.68c-.32 0-1.16-.16-1.16-1.4V8.44c0-1.28.84-1.4 1.16-1.4h3.68c.32 0 1.12.12 1.12 1.4V20.4h3.68c.52 0 .96-.04 1.28-.08s.6-.12.84-.24c.2-.12.44-.32.64-.56l.68-1 6.04-10.68c.12-.28.28-.44.44-.56.16-.16.44-.24.88-.24h3.96c.48 0 .8.24.92.68.04.36 0 .68-.12.96l-6.6 11.6-1.08 1.8-.76 1.04c.8.76 1.6 1.84 2.4 3.16zm35.969-5.96c2.08 0 3.68.76 4.76 2.2 1.04 1.44 1.56 3.48 1.56 6.08v3.52c0 2.32-.52 4.2-1.52 5.64-1.04 1.48-2.68 2.24-4.88 2.24h-18.04c-.36 0-1.16-.12-1.16-1.36v-3.2c0-1.24.8-1.36 1.16-1.36h17.08c.68 0 .92-.28 1.08-.52.24-.4.36-.96.36-1.68v-3.44c0-1.96-.8-2.2-1.4-2.2h-12c-1.68 0-3.52-.24-4.76-1.88-1-1.4-1.56-3.64-1.56-6.4v-3.04c0-2.32.52-4.24 1.56-5.68 1.04-1.48 2.64-2.2 4.84-2.2h17.24c.32 0 1.12.12 1.12 1.36v3.2c0 1.24-.8 1.36-1.12 1.36h-16.28c-.68 0-.92.28-1.08.52-.2.4-.32.96-.32 1.68v2.96c0 1.96.76 2.2 1.36 2.2h12z" transform="matrix(1.204259 0 0 1.204259 -3.853629 83.522026)" fill="url(#A)"/></svg>
 -->
 <!-- <svg width="220" height="131.741" viewBox="0 0 369.89473684210526 83.2721782429724" class="css-1j8o68f"><defs id="SvgjsDefs2484"><linearGradient id="SvgjsLinearGradient2489"><stop id="SvgjsStop2490" stop-color="#8f5e25" offset="0"></stop><stop id="SvgjsStop2491" stop-color="#fbf4a1" offset="0.5"></stop><stop id="SvgjsStop2492" stop-color="#8f5e25" offset="1"></stop></linearGradient><linearGradient id="SvgjsLinearGradient2493"><stop id="SvgjsStop2494" stop-color="#b88746" offset="0"></stop><stop id="SvgjsStop2495" stop-color="#fdf5a6" offset="1"></stop></linearGradient></defs><g id="SvgjsG2485" featurekey="symbolFeature-0" transform="matrix(1.276456288091759,0,0,1.276456288091759,-18.553289517994788,-24.17352883329254)" fill="url(#SvgjsLinearGradient2489)"><g xmlns="http://www.w3.org/2000/svg"><path d="M79.228,41.687C79.002,28.111,69.21,18.938,57.272,18.938H43.739c-11.833,0-21.766,8.752-21.955,22.778   c-3.602,0.553-7.249,3.745-7.249,7.67v18.1c0,4.28,3.298,7.764,7.351,7.764c0,0,0.577,0,1.97,0s1.777-1.461,1.777-1.799v-7.117   c3.708,10.386,13.641,17.841,25.286,17.841c10.863,0,20.233-6.491,24.452-15.795v5.024c0,0.329,0.536,1.846,1.999,1.846   s1.968,0,1.968,0c4.056,0,7.354-3.483,7.354-7.764v-18.1C86.691,45.41,82.899,42.147,79.228,41.687z M43.739,23.067h13.534   c9.477,0,18.106,8.049,18.106,19.139v4.104c-4.216-9.314-13.59-15.814-24.459-15.814c-11.646,0-21.579,7.457-25.286,17.844v-6.135   C25.633,32.68,33.046,23.067,43.739,23.067z M50.919,80.268c-12.646,0-22.934-10.286-22.934-22.929   c0-12.646,10.288-22.934,22.934-22.934c12.644,0,22.93,10.288,22.93,22.934C73.85,69.981,63.563,80.268,50.919,80.268z"></path><path d="M50.917,48.133c-5.082,0-9.203,4.121-9.203,9.203c0,5.084,4.121,9.204,9.203,9.204c5.083,0,9.204-4.12,9.204-9.204   C60.121,52.254,56,48.133,50.917,48.133z M50.917,60.404c-1.694,0-3.067-1.373-3.067-3.068c0-1.693,1.373-3.068,3.067-3.068   s3.068,1.375,3.068,3.068C53.985,59.031,52.611,60.404,50.917,60.404z"></path></g></g><g id="SvgjsG2486" featurekey="nameFeature-0" transform="matrix(1.684696703138602,0,0,1.684696703138602,105.66554041226537,-3.305383963958615)" fill="url(#SvgjsLinearGradient2493)"><path d="M18.84 20.44 c0 1.56 -0.24 2.92 -0.8 3.92 c1.52 1.44 2.16 3.76 2.16 7 c0 3.44 -0.72 5.88 -2.36 7.16 c-1.56 1.24 -3.76 1.48 -5.96 1.48 l-7.8 0 c-0.2 0 -0.32 -0.16 -0.32 -0.36 l0 -25.68 c0 -0.2 0.12 -0.36 0.32 -0.36 l6.4 0 c2.16 0 4.4 0.16 5.92 1.16 c1.88 1.2 2.44 3.36 2.44 5.68 z M9.04 18.84 l0 3.6 l2.44 0 c1.28 0 1.96 -0.4 1.96 -1.8 s-1.04 -1.8 -2.8 -1.8 l-1.6 0 z M10.56 34.76 c2.2 0 4.28 -0.96 4.28 -3.52 c0 -1.92 -1.36 -3.44 -3.4 -3.44 l-2.4 0 l0 6.96 l1.52 0 z M6.08 16.12 l0 21.32 c0 0.2 0.16 0.28 0.32 0.28 l5.36 0 c3.88 0 6.2 -1.96 6.2 -6.16 c0 -3 -0.68 -6.12 -3.8 -7 c1.84 -0.6 2.32 -2.44 2.32 -4.4 c0 -3.2 -1.8 -4.36 -5.04 -4.36 l-5.04 0 c-0.24 0 -0.32 0.12 -0.32 0.32 z M11.16 37.24 l-4.56 0 l0 -12.32 l5.64 0 c4.12 0 5.16 2.68 5.16 6.64 c0 4.04 -2.2 5.84 -6.24 5.68 z M16 20.16 c0 3.24 -1.36 4.24 -4.64 4.24 l-4.76 0 l0 -8.08 l4.84 0 c2.36 0 4.56 0.44 4.56 3.84 z M27.08 40 c-0.2 0 -0.32 -0.16 -0.32 -0.36 l0 -25.68 c0 -0.2 0.12 -0.36 0.32 -0.36 l13.6 0 c0.2 0 0.36 0.16 0.36 0.36 l0 4.28 c0 0.2 -0.16 0.36 -0.36 0.36 l-8.64 0 l0 5.44 l6.72 0 c0.2 0 0.32 0.16 0.32 0.36 l0 4.36 c0 0.2 -0.12 0.36 -0.32 0.36 l-6.72 0 l0 5.88 l8.64 0 c0.2 0 0.36 0.16 0.36 0.36 l0 4.28 c0 0.2 -0.16 0.36 -0.36 0.36 l-13.6 0 z M29.08 16.12 l0 21.28 c0 0.24 0.16 0.32 0.32 0.32 l9.2 0 c0.36 0 0.28 -0.48 0 -0.48 l-9 0 l0 -10.44 l7.36 0 c0.24 0 0.24 -0.56 0 -0.56 l-7.36 0 l0 -9.92 l9 0 c0.28 0 0.36 -0.52 0 -0.52 l-9.2 0 c-0.16 0 -0.32 0.12 -0.32 0.32 z M52.8 13.84 c0.04 -0.12 0.12 -0.24 0.28 -0.24 l4.96 0 c0.16 0 0.24 0.12 0.28 0.24 l6.92 25.72 c0.04 0.24 -0.12 0.44 -0.36 0.44 l-4.56 0 c-0.12 0 -0.24 -0.08 -0.28 -0.24 l-1.56 -5.6 l-5.84 0 l-1.52 5.6 c-0.04 0.16 -0.12 0.24 -0.28 0.24 l-4.6 0 c-0.24 0 -0.4 -0.2 -0.36 -0.44 z M53.92 29.2 l3.32 0 l-1.72 -6.04 z M60.08 31.560000000000002 l1.84 6 c0.08 0.24 0.52 0.2 0.4 -0.12 l-6.4 -21.28 c-0.12 -0.52 -0.8 -0.56 -0.92 0 l-6.2 21.28 c-0.12 0.28 0.32 0.4 0.44 0.16 l1.76 -6.04 l9.08 0 z M51.12 31.04 l4.36 -14.72 l4.44 14.72 l-8.8 0 z M74.96 18.6 l-5.68 0 c-0.2 0 -0.36 -0.16 -0.36 -0.36 l0 -4.28 c0 -0.2 0.16 -0.36 0.36 -0.36 l16.68 0 c0.2 0 0.36 0.16 0.36 0.36 l0 4.28 c0 0.2 -0.16 0.36 -0.36 0.36 l-5.68 0 l0 21.04 c0 0.2 -0.16 0.36 -0.36 0.36 l-4.6 0 c-0.2 0 -0.36 -0.16 -0.36 -0.36 l0 -21.04 z M83.52 15.8 l-12.08 0 c-0.28 0 -0.28 0.52 0 0.52 l5.92 0 l0 21.2 c0 0.28 0.52 0.28 0.52 0 l0 -21.2 l5.64 0 c0.4 0 0.36 -0.52 0 -0.52 z M107 20.44 c0 1.56 -0.24 2.92 -0.8 3.92 c1.52 1.44 2.16 3.76 2.16 7 c0 3.44 -0.72 5.88 -2.36 7.16 c-1.56 1.24 -3.76 1.48 -5.96 1.48 l-7.8 0 c-0.2 0 -0.32 -0.16 -0.32 -0.36 l0 -25.68 c0 -0.2 0.12 -0.36 0.32 -0.36 l6.4 0 c2.16 0 4.4 0.16 5.92 1.16 c1.88 1.2 2.44 3.36 2.44 5.68 z M97.19999999999999 18.84 l0 3.6 l2.44 0 c1.28 0 1.96 -0.4 1.96 -1.8 s-1.04 -1.8 -2.8 -1.8 l-1.6 0 z M98.72 34.76 c2.2 0 4.28 -0.96 4.28 -3.52 c0 -1.92 -1.36 -3.44 -3.4 -3.44 l-2.4 0 l0 6.96 l1.52 0 z M94.24 16.12 l0 21.32 c0 0.2 0.16 0.28 0.32 0.28 l5.36 0 c3.88 0 6.2 -1.96 6.2 -6.16 c0 -3 -0.68 -6.12 -3.8 -7 c1.84 -0.6 2.32 -2.44 2.32 -4.4 c0 -3.2 -1.8 -4.36 -5.04 -4.36 l-5.04 0 c-0.24 0 -0.32 0.12 -0.32 0.32 z M99.32 37.24 l-4.56 0 l0 -12.32 l5.64 0 c4.12 0 5.16 2.68 5.16 6.64 c0 4.04 -2.2 5.84 -6.24 5.68 z M104.16 20.16 c0 3.24 -1.36 4.24 -4.64 4.24 l-4.76 0 l0 -8.08 l4.84 0 c2.36 0 4.56 0.44 4.56 3.84 z M123.6 13.239999999999998 c3.44 0 5.84 0.76 7.36 2.4 c1.2 1.32 1.76 3.2 1.76 5.88 l0 10.52 c0 2.76 -0.56 4.68 -1.76 5.96 c-1.56 1.6 -3.92 2.4 -7.36 2.4 c-3.56 0 -5.88 -0.8 -7.4 -2.4 c-1.16 -1.28 -1.8 -3.2 -1.8 -5.96 l0 -10.52 c0 -2.68 0.64 -4.56 1.8 -5.92 c1.56 -1.6 3.92 -2.36 7.4 -2.36 z M127.39999999999999 30.84 l0 -8 c0 -3.52 -1.88 -4.24 -3.6 -4.24 l-0.48 0 c-2.56 0 -3.56 1.64 -3.56 4.24 l0 8 c0 3.52 1.88 4.28 3.56 4.28 l0.48 0 c2.56 0 3.56 -1.72 3.6 -4.28 z M116.92 21.8 l0 9.92 c0 1.88 0.48 3.44 1.6 4.6 c1.04 1.04 2.64 1.6 4.6 1.6 l1.04 0 c3.76 0 6.2 -2.4 6.2 -6.2 l0 -9.92 c0 -4.08 -2.16 -6.28 -6.2 -6.28 l-1.04 0 c-4.08 0 -6.2 2.2 -6.2 6.28 z M124.16 37.4 l-1.04 0 c-1.88 0 -3.28 -0.48 -4.28 -1.48 s-1.52 -2.4 -1.52 -4.2 l0 -9.92 c0 -3.8 2.04 -5.8 5.8 -5.8 l1.04 0 c3.8 0 5.68 1.96 5.68 5.8 l0 9.92 c0 1.68 -0.52 3.2 -1.6 4.24 c-1.04 0.88 -2.44 1.44 -4.08 1.44 z M150.84 13.600000000000001 l4.56 0 c0.24 0 0.4 0.24 0.32 0.52 l-5.2 11.72 l6.28 13.68 c0.12 0.24 -0.04 0.48 -0.28 0.48 l-4.52 0 c-0.16 0 -0.24 -0.04 -0.28 -0.2 l-4.4 -9.36 l-4.4 9.36 c-0.12 0.2 -0.16 0.2 -0.32 0.2 l-4.56 0 c-0.24 0 -0.4 -0.24 -0.28 -0.48 l6.24 -13.68 l-5.16 -11.72 c-0.08 -0.28 0.08 -0.52 0.32 -0.52 l4.64 0 c0.16 0 0.24 0.12 0.32 0.2 l3.2 7.12 l3.24 -7.12 c0.04 -0.08 0.16 -0.2 0.28 -0.2 z M153.20000000000002 37.64 c0.12 0.2 0.56 0.12 0.4 -0.24 l-6 -11.68 l4.84 -9.52 c0.12 -0.24 -0.12 -0.56 -0.4 -0.28 l-4.72 9.28 l-4.76 -9.28 c-0.16 -0.28 -0.72 -0.08 -0.52 0.28 l4.96 9.52 l-6.04 11.68 c-0.12 0.36 0.36 0.44 0.44 0.24 l5.92 -11.4 z"></path></g></svg> -->
 <svg width="220" height="131.741" viewBox="0 0 350 195.09792448972837" class="css-1j8o68f"><defs id="SvgjsDefs2715"><linearGradient id="SvgjsLinearGradient2720"><stop id="SvgjsStop2721" stop-color="#8f5e25" offset="0"></stop><stop id="SvgjsStop2722" stop-color="#fbf4a1" offset="0.5"></stop><stop id="SvgjsStop2723" stop-color="#8f5e25" offset="1"></stop></linearGradient><linearGradient id="SvgjsLinearGradient2724"><stop id="SvgjsStop2725" stop-color="#b88746" offset="0"></stop><stop id="SvgjsStop2726" stop-color="#fdf5a6" offset="1"></stop></linearGradient></defs><g id="SvgjsG2716" featurekey="symbolFeature-0" transform="matrix(1.7323335338388157,0,0,1.7323335338388157,87.82053565414994,-32.80693198803988)" fill="url(#SvgjsLinearGradient2720)"><g xmlns="http://www.w3.org/2000/svg"><path d="M79.228,41.687C79.002,28.111,69.21,18.938,57.272,18.938H43.739c-11.833,0-21.766,8.752-21.955,22.778   c-3.602,0.553-7.249,3.745-7.249,7.67v18.1c0,4.28,3.298,7.764,7.351,7.764c0,0,0.577,0,1.97,0s1.777-1.461,1.777-1.799v-7.117   c3.708,10.386,13.641,17.841,25.286,17.841c10.863,0,20.233-6.491,24.452-15.795v5.024c0,0.329,0.536,1.846,1.999,1.846   s1.968,0,1.968,0c4.056,0,7.354-3.483,7.354-7.764v-18.1C86.691,45.41,82.899,42.147,79.228,41.687z M43.739,23.067h13.534   c9.477,0,18.106,8.049,18.106,19.139v4.104c-4.216-9.314-13.59-15.814-24.459-15.814c-11.646,0-21.579,7.457-25.286,17.844v-6.135   C25.633,32.68,33.046,23.067,43.739,23.067z M50.919,80.268c-12.646,0-22.934-10.286-22.934-22.929   c0-12.646,10.288-22.934,22.934-22.934c12.644,0,22.93,10.288,22.93,22.934C73.85,69.981,63.563,80.268,50.919,80.268z"></path><path d="M50.917,48.133c-5.082,0-9.203,4.121-9.203,9.203c0,5.084,4.121,9.204,9.203,9.204c5.083,0,9.204-4.12,9.204-9.204   C60.121,52.254,56,48.133,50.917,48.133z M50.917,60.404c-1.694,0-3.067-1.373-3.067-3.068c0-1.693,1.373-3.068,3.067-3.068   s3.068,1.375,3.068,3.068C53.985,59.031,52.611,60.404,50.917,60.404z"></path></g></g><g id="SvgjsG2717" featurekey="nameFeature-0" transform="matrix(2.286374097116674,0,0,2.286374097116674,-8.596766583354132,102.72840747748474)" fill="url(#SvgjsLinearGradient2724)"><path d="M18.84 20.44 c0 1.56 -0.24 2.92 -0.8 3.92 c1.52 1.44 2.16 3.76 2.16 7 c0 3.44 -0.72 5.88 -2.36 7.16 c-1.56 1.24 -3.76 1.48 -5.96 1.48 l-7.8 0 c-0.2 0 -0.32 -0.16 -0.32 -0.36 l0 -25.68 c0 -0.2 0.12 -0.36 0.32 -0.36 l6.4 0 c2.16 0 4.4 0.16 5.92 1.16 c1.88 1.2 2.44 3.36 2.44 5.68 z M9.04 18.84 l0 3.6 l2.44 0 c1.28 0 1.96 -0.4 1.96 -1.8 s-1.04 -1.8 -2.8 -1.8 l-1.6 0 z M10.56 34.76 c2.2 0 4.28 -0.96 4.28 -3.52 c0 -1.92 -1.36 -3.44 -3.4 -3.44 l-2.4 0 l0 6.96 l1.52 0 z M6.08 16.12 l0 21.32 c0 0.2 0.16 0.28 0.32 0.28 l5.36 0 c3.88 0 6.2 -1.96 6.2 -6.16 c0 -3 -0.68 -6.12 -3.8 -7 c1.84 -0.6 2.32 -2.44 2.32 -4.4 c0 -3.2 -1.8 -4.36 -5.04 -4.36 l-5.04 0 c-0.24 0 -0.32 0.12 -0.32 0.32 z M11.16 37.24 l-4.56 0 l0 -12.32 l5.64 0 c4.12 0 5.16 2.68 5.16 6.64 c0 4.04 -2.2 5.84 -6.24 5.68 z M16 20.16 c0 3.24 -1.36 4.24 -4.64 4.24 l-4.76 0 l0 -8.08 l4.84 0 c2.36 0 4.56 0.44 4.56 3.84 z M27.08 40 c-0.2 0 -0.32 -0.16 -0.32 -0.36 l0 -25.68 c0 -0.2 0.12 -0.36 0.32 -0.36 l13.6 0 c0.2 0 0.36 0.16 0.36 0.36 l0 4.28 c0 0.2 -0.16 0.36 -0.36 0.36 l-8.64 0 l0 5.44 l6.72 0 c0.2 0 0.32 0.16 0.32 0.36 l0 4.36 c0 0.2 -0.12 0.36 -0.32 0.36 l-6.72 0 l0 5.88 l8.64 0 c0.2 0 0.36 0.16 0.36 0.36 l0 4.28 c0 0.2 -0.16 0.36 -0.36 0.36 l-13.6 0 z M29.08 16.12 l0 21.28 c0 0.24 0.16 0.32 0.32 0.32 l9.2 0 c0.36 0 0.28 -0.48 0 -0.48 l-9 0 l0 -10.44 l7.36 0 c0.24 0 0.24 -0.56 0 -0.56 l-7.36 0 l0 -9.92 l9 0 c0.28 0 0.36 -0.52 0 -0.52 l-9.2 0 c-0.16 0 -0.32 0.12 -0.32 0.32 z M52.8 13.84 c0.04 -0.12 0.12 -0.24 0.28 -0.24 l4.96 0 c0.16 0 0.24 0.12 0.28 0.24 l6.92 25.72 c0.04 0.24 -0.12 0.44 -0.36 0.44 l-4.56 0 c-0.12 0 -0.24 -0.08 -0.28 -0.24 l-1.56 -5.6 l-5.84 0 l-1.52 5.6 c-0.04 0.16 -0.12 0.24 -0.28 0.24 l-4.6 0 c-0.24 0 -0.4 -0.2 -0.36 -0.44 z M53.92 29.2 l3.32 0 l-1.72 -6.04 z M60.08 31.560000000000002 l1.84 6 c0.08 0.24 0.52 0.2 0.4 -0.12 l-6.4 -21.28 c-0.12 -0.52 -0.8 -0.56 -0.92 0 l-6.2 21.28 c-0.12 0.28 0.32 0.4 0.44 0.16 l1.76 -6.04 l9.08 0 z M51.12 31.04 l4.36 -14.72 l4.44 14.72 l-8.8 0 z M74.96 18.6 l-5.68 0 c-0.2 0 -0.36 -0.16 -0.36 -0.36 l0 -4.28 c0 -0.2 0.16 -0.36 0.36 -0.36 l16.68 0 c0.2 0 0.36 0.16 0.36 0.36 l0 4.28 c0 0.2 -0.16 0.36 -0.36 0.36 l-5.68 0 l0 21.04 c0 0.2 -0.16 0.36 -0.36 0.36 l-4.6 0 c-0.2 0 -0.36 -0.16 -0.36 -0.36 l0 -21.04 z M83.52 15.8 l-12.08 0 c-0.28 0 -0.28 0.52 0 0.52 l5.92 0 l0 21.2 c0 0.28 0.52 0.28 0.52 0 l0 -21.2 l5.64 0 c0.4 0 0.36 -0.52 0 -0.52 z M107 20.44 c0 1.56 -0.24 2.92 -0.8 3.92 c1.52 1.44 2.16 3.76 2.16 7 c0 3.44 -0.72 5.88 -2.36 7.16 c-1.56 1.24 -3.76 1.48 -5.96 1.48 l-7.8 0 c-0.2 0 -0.32 -0.16 -0.32 -0.36 l0 -25.68 c0 -0.2 0.12 -0.36 0.32 -0.36 l6.4 0 c2.16 0 4.4 0.16 5.92 1.16 c1.88 1.2 2.44 3.36 2.44 5.68 z M97.19999999999999 18.84 l0 3.6 l2.44 0 c1.28 0 1.96 -0.4 1.96 -1.8 s-1.04 -1.8 -2.8 -1.8 l-1.6 0 z M98.72 34.76 c2.2 0 4.28 -0.96 4.28 -3.52 c0 -1.92 -1.36 -3.44 -3.4 -3.44 l-2.4 0 l0 6.96 l1.52 0 z M94.24 16.12 l0 21.32 c0 0.2 0.16 0.28 0.32 0.28 l5.36 0 c3.88 0 6.2 -1.96 6.2 -6.16 c0 -3 -0.68 -6.12 -3.8 -7 c1.84 -0.6 2.32 -2.44 2.32 -4.4 c0 -3.2 -1.8 -4.36 -5.04 -4.36 l-5.04 0 c-0.24 0 -0.32 0.12 -0.32 0.32 z M99.32 37.24 l-4.56 0 l0 -12.32 l5.64 0 c4.12 0 5.16 2.68 5.16 6.64 c0 4.04 -2.2 5.84 -6.24 5.68 z M104.16 20.16 c0 3.24 -1.36 4.24 -4.64 4.24 l-4.76 0 l0 -8.08 l4.84 0 c2.36 0 4.56 0.44 4.56 3.84 z M123.6 13.239999999999998 c3.44 0 5.84 0.76 7.36 2.4 c1.2 1.32 1.76 3.2 1.76 5.88 l0 10.52 c0 2.76 -0.56 4.68 -1.76 5.96 c-1.56 1.6 -3.92 2.4 -7.36 2.4 c-3.56 0 -5.88 -0.8 -7.4 -2.4 c-1.16 -1.28 -1.8 -3.2 -1.8 -5.96 l0 -10.52 c0 -2.68 0.64 -4.56 1.8 -5.92 c1.56 -1.6 3.92 -2.36 7.4 -2.36 z M127.39999999999999 30.84 l0 -8 c0 -3.52 -1.88 -4.24 -3.6 -4.24 l-0.48 0 c-2.56 0 -3.56 1.64 -3.56 4.24 l0 8 c0 3.52 1.88 4.28 3.56 4.28 l0.48 0 c2.56 0 3.56 -1.72 3.6 -4.28 z M116.92 21.8 l0 9.92 c0 1.88 0.48 3.44 1.6 4.6 c1.04 1.04 2.64 1.6 4.6 1.6 l1.04 0 c3.76 0 6.2 -2.4 6.2 -6.2 l0 -9.92 c0 -4.08 -2.16 -6.28 -6.2 -6.28 l-1.04 0 c-4.08 0 -6.2 2.2 -6.2 6.28 z M124.16 37.4 l-1.04 0 c-1.88 0 -3.28 -0.48 -4.28 -1.48 s-1.52 -2.4 -1.52 -4.2 l0 -9.92 c0 -3.8 2.04 -5.8 5.8 -5.8 l1.04 0 c3.8 0 5.68 1.96 5.68 5.8 l0 9.92 c0 1.68 -0.52 3.2 -1.6 4.24 c-1.04 0.88 -2.44 1.44 -4.08 1.44 z M150.84 13.600000000000001 l4.56 0 c0.24 0 0.4 0.24 0.32 0.52 l-5.2 11.72 l6.28 13.68 c0.12 0.24 -0.04 0.48 -0.28 0.48 l-4.52 0 c-0.16 0 -0.24 -0.04 -0.28 -0.2 l-4.4 -9.36 l-4.4 9.36 c-0.12 0.2 -0.16 0.2 -0.32 0.2 l-4.56 0 c-0.24 0 -0.4 -0.24 -0.28 -0.48 l6.24 -13.68 l-5.16 -11.72 c-0.08 -0.28 0.08 -0.52 0.32 -0.52 l4.64 0 c0.16 0 0.24 0.12 0.32 0.2 l3.2 7.12 l3.24 -7.12 c0.04 -0.08 0.16 -0.2 0.28 -0.2 z M153.20000000000002 37.64 c0.12 0.2 0.56 0.12 0.4 -0.24 l-6 -11.68 l4.84 -9.52 c0.12 -0.24 -0.12 -0.56 -0.4 -0.28 l-4.72 9.28 l-4.76 -9.28 c-0.16 -0.28 -0.72 -0.08 -0.52 0.28 l4.96 9.52 l-6.04 11.68 c-0.12 0.36 0.36 0.44 0.44 0.24 l5.92 -11.4 z"></path></g></svg>